<svg version="1.1" id="Layer_1" xmlns="http://www.w3.org/2000/svg" xmlns:xlink="http://www.w3.org/1999/xlink" x="0px" y="0px"
	 width="100%" viewBox="0 0 225 225" enable-background="new 0 0 225 225" xml:space="preserve">
<path fill="#010101" opacity="1.000000" stroke="none" 
	d="
M98.000000,1.000000 
	C107.687561,1.000000 117.375122,1.000000 127.677231,1.385180 
	C136.895020,3.534980 145.751617,4.515854 154.057388,7.200729 
	C188.865875,18.452717 201.612518,48.462032 199.725220,76.015205 
	C181.589462,76.778473 163.412628,77.543472 145.254684,78.307678 
	C144.353851,74.075867 143.630112,70.666397 142.902100,67.257843 
	C141.032700,58.505157 135.984695,52.462746 127.202332,50.406067 
	C115.498360,47.665195 103.772255,47.807701 92.341431,52.037159 
	C87.665382,53.767311 83.299362,56.185722 83.123756,61.909950 
	C82.954132,67.439209 87.101883,70.257751 91.466469,71.994926 
	C98.211891,74.679703 105.178009,76.848495 112.136322,78.952370 
	C130.043533,84.366699 148.604355,88.154755 165.807693,95.250580 
	C202.194885,110.259117 216.564850,149.172745 199.964890,184.105789 
	C189.821869,205.450836 171.687653,216.458893 149.610535,221.997452 
	C143.145859,223.619278 136.540741,224.681366 130.000000,226.000000 
	C119.979103,226.000000 109.958214,226.000000 99.323029,225.623138 
	C96.078262,224.841202 93.444000,224.459198 90.817879,224.027649 
	C44.302402,216.383835 22.911867,184.281891 21.463715,143.129120 
	C39.277000,141.450882 57.096603,139.772064 74.858917,138.098618 
	C75.164742,139.340973 75.402084,140.140488 75.552551,140.956039 
	C75.763748,142.100784 75.881622,143.262634 76.088936,144.408203 
	C78.854042,159.687881 85.779594,171.642960 101.872108,175.957123 
	C113.660667,179.117477 125.372040,178.279221 136.602356,173.707275 
	C140.315918,172.195465 143.951843,169.606918 146.633163,166.621460 
	C153.166748,159.346771 151.578033,150.068008 143.277832,145.004044 
	C140.476654,143.295044 137.398834,141.833435 134.254395,140.932526 
	C125.490837,138.421646 116.636055,136.224777 107.799248,133.974731 
	C89.611252,129.343735 71.429085,124.700829 55.504684,114.125465 
	C30.852108,97.753716 22.246447,67.217491 34.734642,40.332394 
	C43.766052,20.889196 60.047134,10.607608 79.903076,5.059810 
	C85.849297,3.398422 91.963020,2.336540 98.000000,1.000000 
z"/>
<path fill="#FDFDFD" opacity="1.000000" stroke="none" 
	d="
M97.531342,1.000000 
	C91.963020,2.336540 85.849297,3.398422 79.903076,5.059810 
	C60.047134,10.607608 43.766052,20.889196 34.734642,40.332394 
	C22.246447,67.217491 30.852108,97.753716 55.504684,114.125465 
	C71.429085,124.700829 89.611252,129.343735 107.799248,133.974731 
	C116.636055,136.224777 125.490837,138.421646 134.254395,140.932526 
	C137.398834,141.833435 140.476654,143.295044 143.277832,145.004044 
	C151.578033,150.068008 153.166748,159.346771 146.633163,166.621460 
	C143.951843,169.606918 140.315918,172.195465 136.602356,173.707275 
	C125.372040,178.279221 113.660667,179.117477 101.872108,175.957123 
	C85.779594,171.642960 78.854042,159.687881 76.088936,144.408203 
	C75.881622,143.262634 75.763748,142.100784 75.552551,140.956039 
	C75.402084,140.140488 75.164742,139.340973 74.858917,138.098618 
	C57.096603,139.772064 39.277000,141.450882 21.463715,143.129120 
	C22.911867,184.281891 44.302402,216.383835 90.817879,224.027649 
	C93.444000,224.459198 96.078262,224.841202 98.854370,225.623138 
	C66.367378,226.000000 33.734764,226.000000 1.051073,226.000000 
	C1.051073,151.112259 1.051073,76.224457 1.051073,1.000000 
	C33.020107,1.000000 65.041397,1.000000 97.531342,1.000000 
z"/>
<path fill="#FDFDFD" opacity="1.000000" stroke="none" 
	d="
M130.468658,226.000000 
	C136.540741,224.681366 143.145859,223.619278 149.610535,221.997452 
	C171.687653,216.458893 189.821869,205.450836 199.964890,184.105789 
	C216.564850,149.172745 202.194885,110.259117 165.807693,95.250580 
	C148.604355,88.154755 130.043533,84.366699 112.136322,78.952370 
	C105.178009,76.848495 98.211891,74.679703 91.466469,71.994926 
	C87.101883,70.257751 82.954132,67.439209 83.123756,61.909950 
	C83.299362,56.185722 87.665382,53.767311 92.341431,52.037159 
	C103.772255,47.807701 115.498360,47.665195 127.202332,50.406067 
	C135.984695,52.462746 141.032700,58.505157 142.902100,67.257843 
	C143.630112,70.666397 144.353851,74.075867 145.254684,78.307678 
	C163.412628,77.543472 181.589462,76.778473 199.725220,76.015205 
	C201.612518,48.462032 188.865875,18.452717 154.057388,7.200729 
	C145.751617,4.515854 136.895020,3.534980 128.145889,1.385180 
	C160.632538,1.000000 193.265060,1.000000 225.948792,1.000000 
	C225.948792,75.887459 225.948792,150.774963 225.948792,226.000000 
	C194.313232,226.000000 162.625275,226.000000 130.468658,226.000000 
z"/>
</svg>