<?xml version="1.0" standalone="no"?>
<!DOCTYPE svg PUBLIC "-//W3C//DTD SVG 20010904//EN"
 "http://www.w3.org/TR/2001/REC-SVG-20010904/DTD/svg10.dtd">
<svg version="1.0" xmlns="http://www.w3.org/2000/svg"
 width="225.000000pt" height="225.000000pt" viewBox="0 0 225.000000 225.000000"
 preserveAspectRatio="xMidYMid meet">

<g transform="translate(0.000000,225.000000) scale(0.100000,-0.100000)"
fill="#000000" stroke="none">
<path d="M1021 2240 c-414 -52 -722 -317 -836 -718 -91 -322 -68 -690 60 -961
151 -318 423 -509 786 -552 450 -52 830 146 1004 525 43 91 87 228 77 237 -4
3 -125 42 -270 86 -170 52 -265 77 -267 69 -2 -6 -11 -45 -20 -86 -39 -171
-134 -290 -261 -330 -134 -41 -297 -19 -397 56 -136 100 -209 339 -194 639 14
274 92 432 253 511 68 34 84 38 177 42 77 3 118 0 159 -12 119 -34 211 -130
250 -261 11 -38 22 -71 23 -73 2 -2 125 25 275 59 l272 63 -7 35 c-4 20 -20
70 -36 111 -142 358 -431 552 -839 565 -74 2 -168 0 -209 -5z"/>
</g>
</svg>
