<svg version="1.1" id="Layer_1" xmlns="http://www.w3.org/2000/svg" xmlns:xlink="http://www.w3.org/1999/xlink" x="0px" y="0px"
	 width="100%" viewBox="0 0 225 225" enable-background="new 0 0 225 225" xml:space="preserve">
<path fill="#010101" opacity="1.000000" stroke="none" 
	d="
M128.000000,226.000000 
	C85.333336,226.000000 43.166672,226.000000 1.000006,226.000000 
	C1.000004,151.000000 1.000004,76.000015 1.000002,1.000016 
	C75.999992,1.000010 150.999985,1.000010 225.999969,1.000005 
	C225.999985,75.999985 225.999985,150.999969 226.000000,225.999969 
	C193.500000,226.000000 161.000000,226.000000 128.000000,226.000000 
M64.463409,27.146631 
	C59.798946,27.146631 55.134457,27.136957 50.470020,27.148823 
	C42.769096,27.168411 40.751801,29.158272 40.747929,36.875664 
	C40.733215,66.195930 40.714630,95.516273 40.772205,124.836441 
	C40.780689,129.156982 40.800785,133.539017 41.477398,137.787186 
	C48.065083,179.148499 86.323456,204.105988 123.695259,199.114471 
	C156.424362,194.743042 185.222733,164.897369 185.890366,131.870941 
	C186.540054,99.732285 186.206467,67.573143 186.229187,35.422935 
	C186.233429,29.412207 183.802765,27.205933 177.567139,27.159184 
	C170.404053,27.105484 163.240219,27.127943 156.076813,27.151840 
	C148.731216,27.176346 146.592911,29.295910 146.585388,36.666191 
	C146.563293,58.323193 146.623138,79.980370 146.556641,101.637199 
	C146.525970,111.626045 146.827545,121.659996 146.003159,131.592560 
	C144.567596,148.889023 126.324821,162.493271 109.292046,159.609863 
	C91.411255,156.582901 80.532043,143.749985 80.453827,125.151039 
	C80.337524,97.497169 80.423126,69.842453 80.422920,42.188099 
	C80.422806,27.147379 80.422165,27.146624 64.463409,27.146631 
z"/>
<path fill="#FBFBFB" opacity="1.000000" stroke="none" 
	d="
M64.954315,27.146631 
	C80.422165,27.146624 80.422806,27.147379 80.422920,42.188099 
	C80.423126,69.842453 80.337524,97.497169 80.453827,125.151039 
	C80.532043,143.749985 91.411255,156.582901 109.292046,159.609863 
	C126.324821,162.493271 144.567596,148.889023 146.003159,131.592560 
	C146.827545,121.659996 146.525970,111.626045 146.556641,101.637199 
	C146.623138,79.980370 146.563293,58.323193 146.585388,36.666191 
	C146.592911,29.295910 148.731216,27.176346 156.076813,27.151840 
	C163.240219,27.127943 170.404053,27.105484 177.567139,27.159184 
	C183.802765,27.205933 186.233429,29.412207 186.229187,35.422935 
	C186.206467,67.573143 186.540054,99.732285 185.890366,131.870941 
	C185.222733,164.897369 156.424362,194.743042 123.695259,199.114471 
	C86.323456,204.105988 48.065083,179.148499 41.477398,137.787186 
	C40.800785,133.539017 40.780689,129.156982 40.772205,124.836441 
	C40.714630,95.516273 40.733215,66.195930 40.747929,36.875664 
	C40.751801,29.158272 42.769096,27.168411 50.470020,27.148823 
	C55.134457,27.136957 59.798946,27.146631 64.954315,27.146631 
M67.093269,88.500031 
	C67.093269,72.717445 67.093269,56.934864 67.093269,40.971436 
	C62.554672,40.971436 58.475658,40.971436 54.465279,40.971436 
	C54.250378,41.435616 53.999874,41.724052 53.999935,42.012436 
	C54.006451,71.506042 53.266464,101.025352 54.255836,130.486542 
	C55.412422,164.926773 88.136894,191.104782 121.890137,185.911621 
	C151.428925,181.366882 172.887772,156.639450 173.026154,126.703423 
	C173.153259,99.208862 173.059326,71.713257 173.041992,44.218124 
	C173.041290,43.110645 172.827225,42.003300 172.731888,41.082520 
	C168.327286,41.082520 164.241653,41.082520 159.906723,41.082520 
	C159.906723,43.017841 159.906784,44.659313 159.906708,46.300789 
	C159.905502,73.129387 159.946457,99.958061 159.890915,126.786552 
	C159.837799,152.439682 139.156662,173.111313 113.597664,173.169739 
	C88.056389,173.228119 67.203598,152.539276 67.105606,126.993393 
	C67.057671,114.495773 67.094696,101.997841 67.093269,88.500031 
z"/>
<path fill="#020202" opacity="1.000000" stroke="none" 
	d="
M67.093269,89.000038 
	C67.094696,101.997841 67.057671,114.495773 67.105606,126.993393 
	C67.203598,152.539276 88.056389,173.228119 113.597664,173.169739 
	C139.156662,173.111313 159.837799,152.439682 159.890915,126.786552 
	C159.946457,99.958061 159.905502,73.129387 159.906708,46.300789 
	C159.906784,44.659313 159.906723,43.017841 159.906723,41.082520 
	C164.241653,41.082520 168.327286,41.082520 172.731888,41.082520 
	C172.827225,42.003300 173.041290,43.110645 173.041992,44.218124 
	C173.059326,71.713257 173.153259,99.208862 173.026154,126.703423 
	C172.887772,156.639450 151.428925,181.366882 121.890137,185.911621 
	C88.136894,191.104782 55.412422,164.926773 54.255836,130.486542 
	C53.266464,101.025352 54.006451,71.506042 53.999935,42.012436 
	C53.999874,41.724052 54.250378,41.435616 54.465279,40.971436 
	C58.475658,40.971436 62.554672,40.971436 67.093269,40.971436 
	C67.093269,56.934864 67.093269,72.717445 67.093269,89.000038 
z"/>
</svg>