<svg version="1.1" id="Layer_1" xmlns="http://www.w3.org/2000/svg" xmlns:xlink="http://www.w3.org/1999/xlink" x="0px" y="0px"
	 width="100%" viewBox="0 0 225 225" enable-background="new 0 0 225 225" xml:space="preserve">
<path fill="#FEFEFE" opacity="1.000000" stroke="none" 
	d="
M156.000000,226.000000 
	C104.000000,226.000000 52.500008,226.000000 1.000007,226.000000 
	C1.000005,151.000000 1.000005,76.000015 1.000002,1.000017 
	C75.999992,1.000011 150.999985,1.000011 225.999969,1.000006 
	C225.999985,75.999985 225.999985,150.999969 226.000000,225.999969 
	C202.833328,226.000000 179.666672,226.000000 156.000000,226.000000 
M174.069244,30.204191 
	C166.973465,27.967619 163.282883,29.794060 160.109894,37.200954 
	C146.395081,69.216240 132.699829,101.239914 118.984978,133.255188 
	C117.293564,137.203537 115.527260,141.119797 113.498009,145.726669 
	C112.743851,144.100586 112.379379,143.364792 112.056435,142.611191 
	C97.032539,107.552689 82.013069,72.492302 66.990845,37.433090 
	C64.210495,30.944252 60.390720,28.242216 55.528172,29.308989 
	C50.353664,30.444197 47.938801,34.162857 47.938251,41.062218 
	C47.934380,89.551544 47.932014,138.040878 47.940937,186.530197 
	C47.942207,193.444489 51.473915,197.783737 57.100693,197.884705 
	C62.689987,197.985001 66.419205,193.633133 66.591141,186.791809 
	C66.620438,185.626129 66.595673,184.459106 66.595673,183.292694 
	C66.595695,152.632782 66.592216,121.972862 66.605209,91.312950 
	C66.605911,89.659683 66.744637,88.006493 66.819115,86.353264 
	C79.741814,114.658150 91.891342,142.953033 103.957787,171.283295 
	C105.856079,175.740219 108.407349,179.144714 113.739212,179.029541 
	C118.818680,178.919815 121.226257,175.566299 123.035332,171.305344 
	C131.266983,151.917084 139.594727,132.569611 147.893127,113.209702 
	C151.761658,104.184563 155.642029,95.164520 159.517044,86.142166 
	C160.404327,102.683647 160.404053,118.982048 160.404404,135.280441 
	C160.404770,152.609955 160.336288,169.939911 160.442352,187.268784 
	C160.481918,193.733246 164.445343,197.966385 169.876511,197.884933 
	C175.358582,197.802689 179.052795,193.512375 179.054932,187.052887 
	C179.071030,138.063675 179.144257,89.074020 178.876404,40.086277 
	C178.859161,36.934597 176.151398,33.797630 174.069244,30.204191 
z"/>
<path fill="#040404" opacity="1.000000" stroke="none" 
	d="
M174.382233,30.429005 
	C176.151398,33.797630 178.859161,36.934597 178.876404,40.086277 
	C179.144257,89.074020 179.071030,138.063675 179.054932,187.052887 
	C179.052795,193.512375 175.358582,197.802689 169.876511,197.884933 
	C164.445343,197.966385 160.481918,193.733246 160.442352,187.268784 
	C160.336288,169.939911 160.404770,152.609955 160.404404,135.280441 
	C160.404053,118.982048 160.404327,102.683647 159.517044,86.142166 
	C155.642029,95.164520 151.761658,104.184563 147.893127,113.209702 
	C139.594727,132.569611 131.266983,151.917084 123.035332,171.305344 
	C121.226257,175.566299 118.818680,178.919815 113.739212,179.029541 
	C108.407349,179.144714 105.856079,175.740219 103.957787,171.283295 
	C91.891342,142.953033 79.741814,114.658150 66.819115,86.353264 
	C66.744637,88.006493 66.605911,89.659683 66.605209,91.312950 
	C66.592216,121.972862 66.595695,152.632782 66.595673,183.292694 
	C66.595673,184.459106 66.620438,185.626129 66.591141,186.791809 
	C66.419205,193.633133 62.689987,197.985001 57.100693,197.884705 
	C51.473915,197.783737 47.942207,193.444489 47.940937,186.530197 
	C47.932014,138.040878 47.934380,89.551544 47.938251,41.062218 
	C47.938801,34.162857 50.353664,30.444197 55.528172,29.308989 
	C60.390720,28.242216 64.210495,30.944252 66.990845,37.433090 
	C82.013069,72.492302 97.032539,107.552689 112.056435,142.611191 
	C112.379379,143.364792 112.743851,144.100586 113.498009,145.726669 
	C115.527260,141.119797 117.293564,137.203537 118.984978,133.255188 
	C132.699829,101.239914 146.395081,69.216240 160.109894,37.200954 
	C163.282883,29.794060 166.973465,27.967619 174.382233,30.429005 
z"/>
</svg>